<svg width="33" height="32" viewBox="0 0 33 32" fill="none" xmlns="http://www.w3.org/2000/svg">
<path d="M28.7325 12.8525C28.2612 12.36 27.7738 11.8525 27.59 11.4062C27.42 10.9975 27.41 10.32 27.4 9.66375C27.3813 8.44375 27.3612 7.06125 26.4 6.1C25.4387 5.13875 24.0562 5.11875 22.8363 5.1C22.18 5.09 21.5025 5.08 21.0938 4.91C20.6488 4.72625 20.14 4.23875 19.6475 3.7675C18.785 2.93875 17.805 2 16.5 2C15.195 2 14.2163 2.93875 13.3525 3.7675C12.86 4.23875 12.3525 4.72625 11.9062 4.91C11.5 5.08 10.82 5.09 10.1638 5.1C8.94375 5.11875 7.56125 5.13875 6.6 6.1C5.63875 7.06125 5.625 8.44375 5.6 9.66375C5.59 10.32 5.58 10.9975 5.41 11.4062C5.22625 11.8513 4.73875 12.36 4.2675 12.8525C3.43875 13.715 2.5 14.695 2.5 16C2.5 17.305 3.43875 18.2837 4.2675 19.1475C4.73875 19.64 5.22625 20.1475 5.41 20.5938C5.58 21.0025 5.59 21.68 5.6 22.3363C5.61875 23.5562 5.63875 24.9387 6.6 25.9C7.56125 26.8612 8.94375 26.8813 10.1638 26.9C10.82 26.91 11.4975 26.92 11.9062 27.09C12.3513 27.2738 12.86 27.7612 13.3525 28.2325C14.215 29.0613 15.195 30 16.5 30C17.805 30 18.7837 29.0613 19.6475 28.2325C20.14 27.7612 20.6475 27.2738 21.0938 27.09C21.5025 26.92 22.18 26.91 22.8363 26.9C24.0562 26.8813 25.4387 26.8612 26.4 25.9C27.3612 24.9387 27.3813 23.5562 27.4 22.3363C27.41 21.68 27.42 21.0025 27.59 20.5938C27.7738 20.1488 28.2612 19.64 28.7325 19.1475C29.5613 18.285 30.5 17.305 30.5 16C30.5 14.695 29.5613 13.7163 28.7325 12.8525ZM22.2075 13.7075L15.2075 20.7075C15.1146 20.8005 15.0043 20.8742 14.8829 20.9246C14.7615 20.9749 14.6314 21.0008 14.5 21.0008C14.3686 21.0008 14.2385 20.9749 14.1171 20.9246C13.9957 20.8742 13.8854 20.8005 13.7925 20.7075L10.7925 17.7075C10.6996 17.6146 10.6259 17.5043 10.5756 17.3829C10.5253 17.2615 10.4994 17.1314 10.4994 17C10.4994 16.8686 10.5253 16.7385 10.5756 16.6171C10.6259 16.4957 10.6996 16.3854 10.7925 16.2925C10.9801 16.1049 11.2346 15.9994 11.5 15.9994C11.6314 15.9994 11.7615 16.0253 11.8829 16.0756C12.0043 16.1259 12.1146 16.1996 12.2075 16.2925L14.5 18.5863L20.7925 12.2925C20.8854 12.1996 20.9957 12.1259 21.1171 12.0756C21.2385 12.0253 21.3686 11.9994 21.5 11.9994C21.6314 11.9994 21.7615 12.0253 21.8829 12.0756C22.0043 12.1259 22.1146 12.1996 22.2075 12.2925C22.3004 12.3854 22.3741 12.4957 22.4244 12.6171C22.4747 12.7385 22.5006 12.8686 22.5006 13C22.5006 13.1314 22.4747 13.2615 22.4244 13.3829C22.3741 13.5043 22.3004 13.6146 22.2075 13.7075Z" fill="#1EA1F1"/>
<path d="M22.2075 13.7075L15.2075 20.7075C15.1146 20.8005 15.0043 20.8742 14.8829 20.9246C14.7615 20.9749 14.6314 21.0008 14.5 21.0008C14.3686 21.0008 14.2385 20.9749 14.1171 20.9246C13.9957 20.8742 13.8854 20.8005 13.7925 20.7075L10.7925 17.7075C10.6996 17.6146 10.6259 17.5043 10.5756 17.3829C10.5253 17.2615 10.4994 17.1314 10.4994 17C10.4994 16.8686 10.5253 16.7385 10.5756 16.6171C10.6259 16.4957 10.6996 16.3854 10.7925 16.2925C10.9801 16.1049 11.2346 15.9994 11.5 15.9994C11.6314 15.9994 11.7615 16.0253 11.8829 16.0756C12.0043 16.1259 12.1146 16.1996 12.2075 16.2925L14.5 18.5863L20.7925 12.2925C20.8854 12.1996 20.9957 12.1259 21.1171 12.0756C21.2385 12.0253 21.3686 11.9994 21.5 11.9994C21.6314 11.9994 21.7615 12.0253 21.8829 12.0756C22.0043 12.1259 22.1146 12.1996 22.2075 12.2925C22.3004 12.3854 22.3741 12.4957 22.4244 12.6171C22.4747 12.7385 22.5006 12.8686 22.5006 13C22.5006 13.1314 22.4747 13.2615 22.4244 13.3829C22.3741 13.5043 22.3004 13.6146 22.2075 13.7075Z" fill="white"/>
</svg>
