<svg width="35" height="34" viewBox="0 0 35 34" fill="none" xmlns="http://www.w3.org/2000/svg">
<path d="M15.0856 9.16939H12.8119C12.1042 9.14635 11.4159 9.40347 10.8967 9.88491C10.3775 10.3663 10.0692 11.0332 10.0388 11.7406V14.7475C10.0461 15.1221 10.156 15.4875 10.3564 15.8041C10.5568 16.1207 10.8402 16.3763 11.1756 16.5431V20.1025C11.1685 20.3244 11.2053 20.5455 11.2837 20.7532C11.3621 20.9609 11.4807 21.1511 11.6326 21.3129C11.7846 21.4747 11.9669 21.605 12.1693 21.6963C12.3716 21.7876 12.59 21.8382 12.8119 21.845H15.0856C15.3075 21.8382 15.5259 21.7876 15.7282 21.6963C15.9306 21.605 16.1129 21.4747 16.2649 21.3129C16.4169 21.1511 16.5354 20.9609 16.6138 20.7532C16.6923 20.5455 16.729 20.3244 16.7219 20.1025V16.5431C17.0573 16.3763 17.3407 16.1207 17.5411 15.8041C17.7415 15.4875 17.8514 15.1221 17.8588 14.7475V11.7406C17.8283 11.0332 17.52 10.3663 17.0008 9.88491C16.4816 9.40347 15.7933 9.14635 15.0856 9.16939ZM14.5969 19.72H13.3006V14.6944H12.1638V11.7406C12.1638 11.5281 12.4294 11.2944 12.8119 11.2944H15.0856C15.4681 11.2944 15.7338 11.5281 15.7338 11.7406V14.6625C15.7338 14.6625 15.7338 14.6625 15.6381 14.6625H14.5756V19.6881L14.5969 19.72Z" fill="white"/>
<path d="M13.9488 8.69128C14.2371 8.69127 14.519 8.60563 14.7586 8.44521C14.9982 8.28478 15.1847 8.05682 15.2946 7.79022C15.4044 7.52362 15.4326 7.2304 15.3756 6.94775C15.3186 6.6651 15.1789 6.40575 14.9742 6.20261C14.7696 5.99947 14.5092 5.86168 14.2262 5.80672C13.9431 5.75176 13.6501 5.7821 13.3843 5.89391C13.1185 6.00571 12.8919 6.19393 12.7333 6.4347C12.5746 6.67547 12.491 6.95794 12.4931 7.24628C12.4959 7.63049 12.6505 7.99801 12.9232 8.2687C13.1959 8.53939 13.5645 8.69129 13.9488 8.69128Z" fill="white"/>
<path d="M31.1188 26.2544L27.4638 22.5994C27.2744 22.3925 27.0424 22.2293 26.7837 22.1211C26.525 22.0128 26.2459 21.9621 25.9656 21.9725C25.6852 21.9723 25.4075 22.0276 25.1486 22.1352C24.8897 22.2427 24.6546 22.4005 24.4569 22.5994L24.3506 22.7163L23.4369 21.7919C25.3992 19.4523 26.4136 16.4623 26.2798 13.4117C26.1461 10.3611 24.8739 7.47133 22.7144 5.31251C21.5814 4.1775 20.2358 3.27705 18.7545 2.66267C17.2732 2.04829 15.6852 1.73206 14.0816 1.73206C12.4779 1.73206 10.89 2.04829 9.40864 2.66267C7.92732 3.27705 6.58169 4.1775 5.44876 5.31251C4.26764 6.39456 3.31121 7.69865 2.63409 9.15033C1.95696 10.602 1.57239 12.1728 1.50234 13.7731C1.36087 17.0051 2.50908 20.1609 4.69438 22.5463C6.87968 24.9316 9.92307 26.3512 13.155 26.4927C16.387 26.6341 19.5428 25.4859 21.9281 23.3006L22.8525 24.2144L22.7356 24.3206C22.5381 24.518 22.3813 24.7524 22.2744 25.0103C22.1674 25.2683 22.1124 25.5448 22.1124 25.8241C22.1124 26.1033 22.1674 26.3798 22.2744 26.6378C22.3813 26.8958 22.5381 27.1302 22.7356 27.3275L26.3906 30.9825C26.7888 31.3783 27.3274 31.6004 27.8888 31.6004C28.4502 31.6004 28.9887 31.3783 29.3869 30.9825L31.1188 29.2506C31.5145 28.8525 31.7367 28.3139 31.7367 27.7525C31.7367 27.1911 31.5145 26.6525 31.1188 26.2544ZM6.97876 21.08C5.56908 19.6717 4.60876 17.877 4.21929 15.9229C3.82982 13.9687 4.0287 11.943 4.79076 10.1019C5.55283 8.26075 6.84384 6.68705 8.50047 5.57982C10.1571 4.47259 12.1049 3.88159 14.0975 3.88159C16.0901 3.88159 18.0379 4.47259 19.6945 5.57982C21.3512 6.68705 22.6422 8.26075 23.4043 10.1019C24.1663 11.943 24.3652 13.9687 23.9757 15.9229C23.5863 17.877 22.6259 19.6717 21.2163 21.08C19.3276 22.9668 16.7671 24.0266 14.0975 24.0266C11.4279 24.0266 8.86742 22.9668 6.97876 21.08ZM27.8888 29.4844L24.2338 25.8294L25.9656 24.0975L29.6206 27.7525L27.8888 29.4844Z" fill="white"/>
</svg>
