<svg width="40" height="41" viewBox="0 0 40 41" fill="none" xmlns="http://www.w3.org/2000/svg">
<path fill-rule="evenodd" clip-rule="evenodd" d="M20.409 8.83329C25.7938 8.83329 30.159 13.3104 30.159 18.8333C30.159 22.5347 28.1983 25.7664 25.2841 27.4955L25.284 33.8333L23.659 35.5H22.034C22.034 36.4204 21.3065 37.1666 20.409 37.1666C19.5116 37.1666 18.784 36.4204 18.784 35.5H17.159L15.534 33.8333L15.534 27.4955C12.6197 25.7664 10.659 22.5347 10.659 18.8333C10.659 13.3104 15.0242 8.83329 20.409 8.83329ZM22.0341 28.695C21.5056 28.786 20.9627 28.8333 20.409 28.8333C19.8553 28.8333 19.3124 28.786 18.7839 28.695L18.784 32.1666H22.034L22.0341 28.695ZM11.5039 26.199L13.2275 27.9668L9.78033 31.5023L8.05676 29.7345L11.5039 26.199ZM29.3142 26.199L32.7613 29.7345L31.0377 31.5023L27.5906 27.9668L29.3142 26.199ZM20.409 12.1666C16.8192 12.1666 13.909 15.1514 13.909 18.8333C13.909 22.5152 16.8192 25.5 20.409 25.5C23.9989 25.5 26.909 22.5152 26.909 18.8333C26.909 15.1514 23.9989 12.1666 20.409 12.1666ZM36.659 17.5833V20.0833H31.784V17.5833H36.659ZM9.03403 17.5833V20.0833H4.15903V17.5833H9.03403ZM31.0377 6.1643L32.7613 7.93206L29.3142 11.4676L27.5906 9.69983L31.0377 6.1643ZM9.78033 6.1643L13.2275 9.69983L11.5039 11.4676L8.05676 7.93206L9.78033 6.1643ZM21.6278 2.16663V7.16663H19.1903V2.16663H21.6278Z" fill="white"/>
</svg>
