<svg width="35" height="35" viewBox="0 0 35 35" fill="none" xmlns="http://www.w3.org/2000/svg">
<path fill-rule="evenodd" clip-rule="evenodd" d="M17.591 3.6875C15.4393 3.6875 13.6951 5.43173 13.6951 7.58333C13.6951 8.69298 14.1592 9.69327 14.9018 10.402C14.8108 10.5637 14.7166 10.7325 14.6191 10.9072L12.0731 15.4722C11.8213 15.9237 11.6715 16.1894 11.5453 16.3692C11.5058 16.4255 11.4778 16.4595 11.4609 16.4783L11.4585 16.4787C11.4369 16.4651 11.4003 16.4401 11.346 16.3961C11.1749 16.2577 10.9575 16.043 10.5909 15.6779L10.479 15.5662C10.027 15.1158 9.61595 14.7062 9.24204 14.3712C9.37325 14.0222 9.44513 13.6442 9.44513 13.25C9.44513 11.4896 8.01804 10.0625 6.25763 10.0625C4.49722 10.0625 3.07013 11.4896 3.07013 13.25C3.07013 14.6426 3.9632 15.8266 5.20785 16.2606C5.21212 16.3414 5.21729 16.4232 5.22312 16.5055C5.25572 16.9656 5.31495 17.5164 5.38274 18.1466L5.64435 20.5788C5.68678 20.9732 5.72743 21.3659 5.76763 21.7544C5.92636 23.2879 6.07817 24.7547 6.30469 25.9915C6.44789 26.7734 6.62848 27.51 6.8786 28.1494C7.1266 28.7835 7.46874 29.3894 7.97445 29.842C8.86675 30.6407 9.9429 30.9895 11.2276 31.154C12.467 31.3125 14.0298 31.3125 15.9762 31.3125H19.2057C21.152 31.3125 22.7149 31.3125 23.9543 31.154C25.239 30.9895 26.3152 30.6407 27.2074 29.842C27.7132 29.3894 28.0553 28.7835 28.3034 28.1494C28.5534 27.51 28.734 26.7734 28.8773 25.9915C29.1038 24.7549 29.2555 23.2882 29.4143 21.7548C29.4544 21.3665 29.4952 20.9731 29.5376 20.5788L29.7992 18.1467C29.8669 17.5164 29.9262 16.9656 29.9587 16.5055C29.9647 16.4232 29.9698 16.3414 29.974 16.2606C31.2187 15.8266 32.1118 14.6426 32.1118 13.25C32.1118 11.4896 30.6846 10.0625 28.9243 10.0625C27.1639 10.0625 25.7368 11.4896 25.7368 13.25C25.7368 13.6442 25.8086 14.0222 25.9399 14.3712C25.5659 14.7062 25.155 15.1158 24.7029 15.5662L24.591 15.6779C24.2245 16.043 24.007 16.2577 23.8359 16.3961C23.7817 16.4401 23.745 16.4651 23.7234 16.4787L23.721 16.4783C23.7042 16.4595 23.6761 16.4255 23.6366 16.3692C23.5104 16.1894 23.3606 15.9237 23.1089 15.4722L20.5627 10.9071C20.4652 10.7324 20.3712 10.5636 20.2801 10.402C21.0227 9.69327 21.4868 8.69298 21.4868 7.58333C21.4868 5.43173 19.7426 3.6875 17.591 3.6875ZM15.8201 7.58333C15.8201 6.60532 16.6129 5.8125 17.591 5.8125C18.569 5.8125 19.3618 6.60532 19.3618 7.58333C19.3618 8.27047 18.9707 8.86809 18.3939 9.16231C18.1541 9.28468 17.8822 9.35417 17.591 9.35417C17.2997 9.35417 17.0278 9.28468 16.788 9.16231C16.2113 8.86809 15.8201 8.27047 15.8201 7.58333ZM16.4641 11.9619C16.579 11.7558 16.6842 11.5674 16.7818 11.3948C17.0431 11.4501 17.314 11.4792 17.591 11.4792C17.8679 11.4792 18.1388 11.4501 18.4002 11.3948C18.4978 11.5674 18.6029 11.7558 18.7178 11.9618L21.2766 16.5496C21.4966 16.9442 21.7 17.3092 21.8975 17.5904C22.108 17.89 22.395 18.2209 22.8348 18.4146C23.2148 18.5819 23.634 18.6403 24.0453 18.5835C24.521 18.5177 24.8878 18.2785 25.1725 18.0481C25.4397 17.8319 25.7358 17.5368 26.0564 17.2175L26.0907 17.1834C26.6225 16.6537 27.0114 16.2696 27.3083 15.9979C27.4782 16.0979 27.6579 16.1826 27.8461 16.2504C27.8439 16.2841 27.8417 16.3191 27.8391 16.3553C27.8095 16.7725 27.7546 17.2855 27.6846 17.9366L27.4248 20.3516C27.3794 20.7731 27.3368 21.1838 27.2954 21.5831C27.197 22.5334 27.1052 23.4188 26.999 24.2292H8.18292C8.07676 23.4188 7.98497 22.5334 7.88648 21.5831C7.84509 21.1838 7.8025 20.7731 7.75717 20.3516L7.49741 17.9366C7.42739 17.2855 7.37236 16.7725 7.34281 16.3553C7.34025 16.3191 7.33791 16.2841 7.33581 16.2504C7.52393 16.1826 7.70382 16.0979 7.87356 15.9979C8.1706 16.2696 8.55949 16.6537 9.09125 17.1834L9.1255 17.2175C9.44605 17.5368 9.74222 17.8319 10.0094 18.0481C10.2942 18.2785 10.661 18.5177 11.1366 18.5835C11.5479 18.6403 11.967 18.5819 12.3471 18.4146C12.7869 18.2209 13.074 17.89 13.2844 17.5904C13.4818 17.3092 13.6853 16.9444 13.9054 16.5496L16.4641 11.9619ZM8.54981 26.3542C8.6424 26.7452 8.74418 27.0854 8.85757 27.3753C9.04003 27.8417 9.22725 28.1114 9.39169 28.2586C9.83968 28.6596 10.4381 28.9105 11.4973 29.0461C12.5861 29.1855 14.0128 29.1875 16.0498 29.1875H19.1322C21.1692 29.1875 22.5958 29.1855 23.6846 29.0461C24.7439 28.9105 25.3423 28.6596 25.7902 28.2586C25.9547 28.1114 26.142 27.8417 26.3243 27.3753C26.4378 27.0854 26.5395 26.7452 26.6321 26.3542H8.54981ZM5.19513 13.25C5.19513 12.6632 5.67083 12.1875 6.25763 12.1875C6.84443 12.1875 7.32013 12.6632 7.32013 13.25C7.32013 13.5162 7.22363 13.7572 7.06228 13.9439C6.86835 14.1684 6.58618 14.3088 6.27044 14.3124L6.25763 14.3125C5.67083 14.3125 5.19513 13.8368 5.19513 13.25ZM27.8618 13.25C27.8618 12.6632 28.3375 12.1875 28.9243 12.1875C29.5111 12.1875 29.9868 12.6632 29.9868 13.25C29.9868 13.8368 29.5111 14.3125 28.9243 14.3125L28.9115 14.3124C28.5958 14.3088 28.3136 14.1684 28.1196 13.9439C27.9583 13.7572 27.8618 13.5162 27.8618 13.25Z" fill="white"/>
</svg>
