<svg width="59" height="59" viewBox="0 0 59 59" fill="none" xmlns="http://www.w3.org/2000/svg">
<rect x="0.5" y="0.5" width="58" height="58" rx="29" fill="url(#paint0_radial_2001_412)" fill-opacity="0.3"/>
<path fill-rule="evenodd" clip-rule="evenodd" d="M29.5 37.726C34.043 37.726 37.7258 34.0432 37.7258 29.5002C37.7258 24.9572 34.043 21.2744 29.5 21.2744C24.957 21.2744 21.2742 24.9572 21.2742 29.5002C21.2742 34.0432 24.957 37.726 29.5 37.726ZM29.5 34.9841C32.5286 34.9841 34.9838 32.5288 34.9838 29.5002C34.9838 26.4716 32.5286 24.0163 29.5 24.0163C26.4713 24.0163 24.0161 26.4716 24.0161 29.5002C24.0161 32.5288 26.4713 34.9841 29.5 34.9841Z" fill="white"/>
<path d="M37.7258 19.8223C36.9241 19.8223 36.2742 20.4722 36.2742 21.2739C36.2742 22.0756 36.9241 22.7255 37.7258 22.7255C38.5275 22.7255 39.1774 22.0756 39.1774 21.2739C39.1774 20.4722 38.5275 19.8223 37.7258 19.8223Z" fill="white"/>
<path fill-rule="evenodd" clip-rule="evenodd" d="M15.3918 18.9674C14.5 20.7175 14.5 23.0087 14.5 27.5909V31.4091C14.5 35.9913 14.5 38.2825 15.3918 40.0326C16.1762 41.5721 17.4278 42.8238 18.9674 43.6082C20.7175 44.5 23.0087 44.5 27.5909 44.5H31.4091C35.9913 44.5 38.2825 44.5 40.0326 43.6082C41.5721 42.8238 42.8238 41.5721 43.6082 40.0326C44.5 38.2825 44.5 35.9913 44.5 31.4091V27.5909C44.5 23.0087 44.5 20.7175 43.6082 18.9674C42.8238 17.4278 41.5721 16.1762 40.0326 15.3918C38.2825 14.5 35.9913 14.5 31.4091 14.5H27.5909C23.0087 14.5 20.7175 14.5 18.9674 15.3918C17.4278 16.1762 16.1762 17.4278 15.3918 18.9674ZM31.4091 17.2273H27.5909C25.2548 17.2273 23.6667 17.2294 22.4392 17.3297C21.2435 17.4274 20.6321 17.6044 20.2055 17.8218C19.1792 18.3447 18.3447 19.1792 17.8218 20.2055C17.6044 20.6321 17.4274 21.2435 17.3297 22.4392C17.2294 23.6667 17.2273 25.2548 17.2273 27.5909V31.4091C17.2273 33.7453 17.2294 35.3332 17.3297 36.5608C17.4274 37.7565 17.6044 38.368 17.8218 38.7945C18.3447 39.8208 19.1792 40.6552 20.2055 41.1782C20.6321 41.3955 21.2435 41.5727 22.4392 41.6703C23.6667 41.7705 25.2548 41.7727 27.5909 41.7727H31.4091C33.7453 41.7727 35.3332 41.7705 36.5608 41.6703C37.7565 41.5727 38.368 41.3955 38.7945 41.1782C39.8208 40.6552 40.6552 39.8208 41.1782 38.7945C41.3955 38.368 41.5727 37.7565 41.6703 36.5608C41.7705 35.3332 41.7727 33.7453 41.7727 31.4091V27.5909C41.7727 25.2548 41.7705 23.6667 41.6703 22.4392C41.5727 21.2435 41.3955 20.6321 41.1782 20.2055C40.6552 19.1792 39.8208 18.3447 38.7945 17.8218C38.368 17.6044 37.7565 17.4274 36.5608 17.3297C35.3332 17.2294 33.7453 17.2273 31.4091 17.2273Z" fill="white"/>
<defs>
<radialGradient id="paint0_radial_2001_412" cx="0" cy="0" r="1" gradientTransform="matrix(26.8975 26.796 -26.796 68.8576 29.1375 29.384)" gradientUnits="userSpaceOnUse">
<stop stop-color="white" stop-opacity="0.2"/>
<stop offset="1" stop-color="white"/>
</radialGradient>
</defs>
</svg>
