<svg width="35" height="34" viewBox="0 0 35 34" fill="none" xmlns="http://www.w3.org/2000/svg">
<g clip-path="url(#clip0_2043_299)">
<path d="M33.3823 2.15888L14.7682 8.70553L6.92985 8.51116C6.20609 8.49276 5.5148 8.7647 4.99683 9.27005C4.086 10.1585 4.19026 11.1659 4.19026 11.8583C2.18214 11.8584 0.863647 13.397 0.863647 15.0819C0.863647 16.7566 2.17032 18.3055 4.19026 18.3055V19.045C4.19026 20.4949 5.3697 21.6939 6.81935 21.7179L7.84047 21.7348L7.18332 28.2725C6.98842 30.2114 8.51264 31.905 10.469 31.905H10.4761C12.179 31.905 13.5914 30.6273 13.7618 28.933L13.8939 27.6193C16.731 28.218 19.4376 26.332 19.9468 23.5646L33.4022 28.0118C34.1181 28.2484 34.8636 27.7167 34.8636 26.9557V3.20823C34.8636 2.44164 34.1049 1.90474 33.3823 2.15888ZM4.19026 16.2809C3.31337 16.2809 2.88824 15.6628 2.88824 15.0819C2.88824 14.4984 3.31503 13.8829 4.19026 13.8829V16.2809ZM11.7474 28.7305C11.6815 29.3861 11.1349 29.8803 10.4762 29.8803H10.469C9.71498 29.8803 9.12204 29.2281 9.19781 28.4749L9.87197 21.7683L12.3427 21.8091L11.7474 28.7305ZM13.8324 19.6088L6.85614 19.4935C6.61282 19.4895 6.41493 19.2882 6.41493 19.0449V11.1837C6.41493 10.9408 6.61123 10.735 6.86357 10.735L13.8324 10.9077V19.6088ZM14.2164 25.4109L14.5689 21.7952C14.5689 21.7952 16.3481 22.375 17.7996 22.8547C17.6688 24.6276 15.9534 25.8668 14.2164 25.4109ZM32.6389 25.4165C32.0207 25.2122 16.6574 20.1344 16.057 19.9359V10.6105L32.6389 4.77854V25.4165Z" fill="white"/>
<path d="M24.069 11.579H19.4871C18.8727 11.579 18.3748 12.077 18.3748 12.6913C18.3748 13.3055 18.8728 13.8036 19.4871 13.8036H24.069C24.6833 13.8036 25.1813 13.3055 25.1813 12.6913C25.1813 12.077 24.6833 11.579 24.069 11.579Z" fill="white"/>
<path d="M24.069 15.5636H19.4871C18.8727 15.5636 18.3748 16.0616 18.3748 16.6759C18.3748 17.2902 18.8728 17.7882 19.4871 17.7882H24.069C24.6833 17.7882 25.1813 17.2902 25.1813 16.6759C25.1813 16.0616 24.6833 15.5636 24.069 15.5636Z" fill="white"/>
</g>
<defs>
<clipPath id="clip0_2043_299">
<rect width="34" height="34" fill="white" transform="translate(0.863647)"/>
</clipPath>
</defs>
</svg>
