<svg width="53" height="52" viewBox="0 0 53 52" fill="none" xmlns="http://www.w3.org/2000/svg">
<rect x="0.5" width="52" height="52" rx="26" fill="url(#paint0_radial_2001_405)" fill-opacity="0.3"/>
<g clip-path="url(#clip0_2001_405)">
<path d="M29.55 19C30.5267 19.1906 31.4244 19.6683 32.1281 20.3719C32.8317 21.0756 33.3094 21.9733 33.5 22.95M29.55 15C31.5793 15.2254 33.4716 16.1342 34.9162 17.577C36.3609 19.0198 37.272 20.911 37.5 22.94M36.5 30.92V33.92C36.5011 34.1985 36.4441 34.4742 36.3325 34.7293C36.2209 34.9845 36.0573 35.2136 35.8521 35.4019C35.6468 35.5901 35.4046 35.7335 35.1407 35.8227C34.8769 35.9119 34.5974 35.9451 34.32 35.92C31.2428 35.5856 28.287 34.5341 25.69 32.85C23.2738 31.3147 21.2253 29.2662 19.69 26.85C18 24.2412 16.9482 21.271 16.62 18.18C16.595 17.9035 16.6279 17.6248 16.7165 17.3616C16.8051 17.0985 16.9476 16.8567 17.1348 16.6516C17.322 16.4466 17.5498 16.2827 17.8038 16.1705C18.0578 16.0583 18.3323 16.0003 18.61 16H21.61C22.0953 15.9952 22.5658 16.1671 22.9338 16.4835C23.3017 16.8 23.5421 17.2394 23.61 17.72C23.7366 18.6801 23.9714 19.6227 24.31 20.53C24.4445 20.8879 24.4737 21.2769 24.3939 21.6509C24.3141 22.0248 24.1289 22.3681 23.86 22.64L22.59 23.91C24.0135 26.4135 26.0864 28.4864 28.59 29.91L29.86 28.64C30.1319 28.3711 30.4751 28.1858 30.8491 28.1061C31.2231 28.0263 31.6121 28.0555 31.97 28.19C32.8773 28.5286 33.8199 28.7634 34.78 28.89C35.2658 28.9585 35.7094 29.2032 36.0265 29.5775C36.3437 29.9518 36.5122 30.4296 36.5 30.92Z" stroke="#F7F7F7" stroke-width="2.5" stroke-linecap="round" stroke-linejoin="round"/>
</g>
<defs>
<radialGradient id="paint0_radial_2001_405" cx="0" cy="0" r="1" gradientTransform="matrix(24.115 24.024 -24.024 61.7344 26.175 25.896)" gradientUnits="userSpaceOnUse">
<stop stop-color="white" stop-opacity="0.2"/>
<stop offset="1" stop-color="white"/>
</radialGradient>
<clipPath id="clip0_2001_405">
<rect width="24" height="24" fill="white" transform="translate(14.5 14)"/>
</clipPath>
</defs>
</svg>
