<svg width="59" height="59" viewBox="0 0 59 59" fill="none" xmlns="http://www.w3.org/2000/svg">
<rect x="0.5" y="0.5" width="58" height="58" rx="29" fill="url(#paint0_radial_2046_39)" fill-opacity="0.3"/>
<path d="M43.3462 22.4245C41.5108 22.4225 39.7512 21.7062 38.4534 20.4328C37.1556 19.1594 36.4256 17.4329 36.4235 15.6321C36.4235 15.4834 36.3936 15.3362 36.3357 15.1988C36.2777 15.0615 36.1927 14.9367 36.0856 14.8316C35.9784 14.7264 35.8512 14.6431 35.7112 14.5862C35.5712 14.5293 35.4212 14.5 35.2697 14.5H29.5007C29.3492 14.5 29.1992 14.5293 29.0592 14.5862C28.9192 14.6431 28.792 14.7264 28.6849 14.8316C28.5777 14.9367 28.4928 15.0615 28.4348 15.1988C28.3768 15.3362 28.347 15.4834 28.347 15.6321V33.7453C28.3468 34.2517 28.2081 34.7489 27.9453 35.1848C27.6826 35.6208 27.3055 35.9796 26.8532 36.2238C26.401 36.468 25.8903 36.5886 25.3743 36.5732C24.8584 36.5577 24.3561 36.4066 23.92 36.1358C23.4838 35.865 23.1297 35.4842 22.8946 35.0333C22.6595 34.5825 22.552 34.0779 22.5833 33.5724C22.6147 33.0669 22.7837 32.5788 23.0728 32.1593C23.3619 31.7397 23.7604 31.4039 24.2269 31.1869C24.424 31.095 24.5905 30.9502 24.7071 30.7692C24.8237 30.5882 24.8855 30.3785 24.8855 30.1644L24.8856 24.272C24.8856 24.1066 24.8486 23.9431 24.7773 23.7932C24.706 23.6432 24.602 23.5104 24.4727 23.4042C24.3434 23.2979 24.192 23.2208 24.029 23.1782C23.8661 23.1355 23.6956 23.1285 23.5296 23.1575C21.4769 23.5182 19.5716 24.4458 18.0374 25.8317C16.5032 27.2175 15.4037 29.004 14.8679 30.9814C14.3322 32.9588 14.3824 35.0452 15.0128 36.9956C15.6431 38.946 16.8273 40.6795 18.4266 41.9926C20.0258 43.3058 21.9736 44.1442 24.0413 44.4093C26.1091 44.6744 28.211 44.3554 30.1005 43.4895C31.9899 42.6236 33.5884 41.2469 34.7084 39.521C35.8284 37.795 36.4233 35.7914 36.4235 33.7453L36.4234 28.6923C38.5605 29.7858 40.936 30.3542 43.3462 30.3491C43.4977 30.3491 43.6478 30.3198 43.7878 30.2629C43.9277 30.206 44.0549 30.1226 44.1621 30.0175C44.2692 29.9124 44.3542 29.7876 44.4122 29.6502C44.4702 29.5129 44.5 29.3656 44.5 29.217V23.5566C44.5 23.4079 44.4702 23.2607 44.4122 23.1234C44.3542 22.986 44.2692 22.8612 44.1621 22.7561C44.0549 22.651 43.9277 22.5676 43.7878 22.5107C43.6478 22.4538 43.4977 22.4245 43.3462 22.4245ZM42.1924 28.0345C39.9377 27.838 37.7788 27.0482 35.9434 25.7484C35.7711 25.6267 35.5678 25.5541 35.3561 25.5385C35.1444 25.5229 34.9323 25.5649 34.7434 25.6599C34.5544 25.7549 34.3959 25.8992 34.2851 26.077C34.1744 26.2548 34.1158 26.4591 34.1158 26.6674L34.1159 33.7453C34.1151 35.3017 33.6782 36.8279 32.8531 38.1572C32.028 39.4865 30.8464 40.5677 29.4374 41.2826C28.0284 41.9975 26.4463 42.3187 24.8638 42.211C23.2814 42.1034 21.7595 41.571 20.4646 40.672C19.1696 39.7731 18.1515 38.5422 17.5213 37.1139C16.8911 35.6856 16.6731 34.1148 16.8913 32.5732C17.1094 31.0316 17.7552 29.5785 18.7581 28.3726C19.7611 27.1668 21.0825 26.2546 22.578 25.7358L22.5779 29.5097C21.8321 29.9986 21.2282 30.6689 20.8249 31.455C20.4216 32.2411 20.2328 33.1164 20.2768 33.9954C20.3209 34.8744 20.5962 35.7273 21.0761 36.4708C21.556 37.2144 22.2241 37.8233 23.0151 38.2381C23.8062 38.653 24.6933 38.8597 25.5901 38.8381C26.4868 38.8165 27.3625 38.5673 28.1318 38.1148C28.9012 37.6623 29.538 37.022 29.9801 36.2562C30.4222 35.4905 30.6545 34.6254 30.6545 33.7453V16.7642H34.1877C34.4471 18.7583 35.3739 20.6114 36.8226 22.0329C38.2713 23.4544 40.1601 24.3637 42.1924 24.6183V28.0345Z" fill="white"/>
<defs>
<radialGradient id="paint0_radial_2046_39" cx="0" cy="0" r="1" gradientTransform="matrix(26.8975 26.796 -26.796 68.8576 29.1375 29.384)" gradientUnits="userSpaceOnUse">
<stop stop-color="white" stop-opacity="0.2"/>
<stop offset="1" stop-color="white"/>
</radialGradient>
</defs>
</svg>
