<svg width="59" height="59" viewBox="0 0 59 59" fill="none" xmlns="http://www.w3.org/2000/svg">
<rect x="0.5" y="0.5" width="58" height="58" rx="29" fill="url(#paint0_radial_2046_53)" fill-opacity="0.3"/>
<path fill-rule="evenodd" clip-rule="evenodd" d="M25.8971 40.2445C26.1838 40.782 26.471 41.2663 26.7455 41.6955C23.8291 41.0397 21.2984 39.3645 19.5473 37.0638C20.703 36.413 22.1832 35.7383 23.9628 35.2447C24.4685 37.2283 25.1821 38.9038 25.8971 40.2445ZM28.103 39.068C27.4818 37.9035 26.8593 36.4492 26.4108 34.726C27.3763 34.5827 28.407 34.5 29.5002 34.5C30.5932 34.5 31.6238 34.5827 32.5892 34.7258C32.1407 36.4492 31.5182 37.9035 30.897 39.068C30.399 40.0018 29.9028 40.7473 29.5 41.2928C29.0972 40.7473 28.601 40.0018 28.103 39.068ZM25.75 29.5C25.75 30.4735 25.8155 31.3975 25.931 32.2698C27.0448 32.099 28.2357 32 29.5002 32C30.7645 32 31.9553 32.0988 33.069 32.2698C33.1845 31.3973 33.25 30.4735 33.25 29.5C33.25 28.5265 33.1845 27.6027 33.069 26.7302C31.9553 26.901 30.7645 27 29.5002 27C28.2357 27 27.0448 26.901 25.931 26.7302C25.8155 27.6025 25.75 28.5265 25.75 29.5ZM23.4781 26.2147C23.3329 27.2463 23.25 28.3423 23.25 29.5C23.25 30.6577 23.3329 31.7537 23.4781 32.7853C21.3556 33.3552 19.598 34.1587 18.2387 34.9318C17.445 33.2893 17 31.4467 17 29.5C17 27.5533 17.445 25.7107 18.2387 24.0681C19.5979 24.8412 21.3555 25.6448 23.4781 26.2147ZM26.4108 24.2741C27.3763 24.4174 28.407 24.5 29.5002 24.5C30.5932 24.5 31.6238 24.4174 32.5892 24.2741C32.1407 22.5509 31.5182 21.0965 30.897 19.932C30.399 18.9982 29.9028 18.2526 29.5 17.7072C29.0972 18.2526 28.601 18.9982 28.103 19.932C27.4818 21.0965 26.8593 22.5509 26.4108 24.2741ZM35.5218 26.2148C35.667 27.2465 35.75 28.3425 35.75 29.5C35.75 30.6577 35.667 31.7535 35.5218 32.7852C37.6443 33.3552 39.402 34.1587 40.7613 34.9318C41.555 33.2892 42 31.4465 42 29.5C42 27.5535 41.555 25.7108 40.7613 24.0682C39.4022 24.8413 37.6445 25.6448 35.5218 26.2148ZM39.4527 21.9363C38.2968 22.5872 36.8167 23.2618 35.0373 23.7555C34.5315 21.7717 33.818 20.0961 33.103 18.7555C32.8162 18.2179 32.529 17.7338 32.2545 17.3045C35.171 17.9604 37.7017 19.6356 39.4527 21.9363ZM23.9628 23.7554C22.1834 23.2617 20.7032 22.5871 19.5473 21.9362C21.2984 19.6356 23.8291 17.9604 26.7453 17.3045C26.471 17.7338 26.1838 18.2179 25.897 18.7555C25.1821 20.0961 24.4685 21.7717 23.9628 23.7554ZM35.0373 35.2445C34.5315 37.2283 33.818 38.9038 33.103 40.2445C32.8162 40.782 32.529 41.2663 32.2545 41.6955C35.171 41.0397 37.7017 39.3643 39.4528 37.0637C38.297 36.4128 36.8168 35.7383 35.0373 35.2445ZM29.5 44.5C37.7843 44.5 44.5 37.7843 44.5 29.5C44.5 21.2157 37.7843 14.5 29.5 14.5C21.2157 14.5 14.5 21.2157 14.5 29.5C14.5 37.7843 21.2157 44.5 29.5 44.5Z" fill="white"/>
<defs>
<radialGradient id="paint0_radial_2046_53" cx="0" cy="0" r="1" gradientTransform="matrix(26.8975 26.796 -26.796 68.8576 29.1375 29.384)" gradientUnits="userSpaceOnUse">
<stop stop-color="white" stop-opacity="0.2"/>
<stop offset="1" stop-color="white"/>
</radialGradient>
</defs>
</svg>
